<mxfile host="app.diagrams.net" modified="2024-01-02T14:21:44.093Z" agent="Mozilla/5.0 (Windows NT 10.0; Win64; x64) AppleWebKit/537.36 (KHTML, like Gecko) Chrome/120.0.0.0 Safari/537.36" etag="0LM7bbmrGeaiC3ZxT8vA" version="22.1.16" type="device">
  <diagram name="Сторінка-1" id="YkCIXC7knHmluyiYkISt">
    <mxGraphModel dx="1434" dy="780" grid="1" gridSize="10" guides="1" tooltips="1" connect="1" arrows="1" fold="1" page="1" pageScale="1" pageWidth="827" pageHeight="1169" math="0" shadow="0">
      <root>
        <mxCell id="0" />
        <mxCell id="1" parent="0" />
        <mxCell id="5MWL0-nEI8ZgV904CVtz-1" value="user" style="swimlane;fontStyle=0;childLayout=stackLayout;horizontal=1;startSize=30;horizontalStack=0;resizeParent=1;resizeParentMax=0;resizeLast=0;collapsible=1;marginBottom=0;whiteSpace=wrap;html=1;" parent="1" vertex="1">
          <mxGeometry x="168" y="294" width="140" height="150" as="geometry" />
        </mxCell>
        <mxCell id="5MWL0-nEI8ZgV904CVtz-2" value="id" style="text;strokeColor=none;fillColor=none;align=left;verticalAlign=middle;spacingLeft=4;spacingRight=4;overflow=hidden;points=[[0,0.5],[1,0.5]];portConstraint=eastwest;rotatable=0;whiteSpace=wrap;html=1;" parent="5MWL0-nEI8ZgV904CVtz-1" vertex="1">
          <mxGeometry y="30" width="140" height="30" as="geometry" />
        </mxCell>
        <mxCell id="5MWL0-nEI8ZgV904CVtz-3" value="email" style="text;strokeColor=none;fillColor=none;align=left;verticalAlign=middle;spacingLeft=4;spacingRight=4;overflow=hidden;points=[[0,0.5],[1,0.5]];portConstraint=eastwest;rotatable=0;whiteSpace=wrap;html=1;" parent="5MWL0-nEI8ZgV904CVtz-1" vertex="1">
          <mxGeometry y="60" width="140" height="30" as="geometry" />
        </mxCell>
        <mxCell id="5MWL0-nEI8ZgV904CVtz-4" value="password" style="text;strokeColor=none;fillColor=none;align=left;verticalAlign=middle;spacingLeft=4;spacingRight=4;overflow=hidden;points=[[0,0.5],[1,0.5]];portConstraint=eastwest;rotatable=0;whiteSpace=wrap;html=1;" parent="5MWL0-nEI8ZgV904CVtz-1" vertex="1">
          <mxGeometry y="90" width="140" height="30" as="geometry" />
        </mxCell>
        <mxCell id="5MWL0-nEI8ZgV904CVtz-5" value="role STRING" style="text;strokeColor=none;fillColor=none;align=left;verticalAlign=middle;spacingLeft=4;spacingRight=4;overflow=hidden;points=[[0,0.5],[1,0.5]];portConstraint=eastwest;rotatable=0;whiteSpace=wrap;html=1;" parent="5MWL0-nEI8ZgV904CVtz-1" vertex="1">
          <mxGeometry y="120" width="140" height="30" as="geometry" />
        </mxCell>
        <mxCell id="5MWL0-nEI8ZgV904CVtz-6" value="busket" style="swimlane;fontStyle=0;childLayout=stackLayout;horizontal=1;startSize=30;horizontalStack=0;resizeParent=1;resizeParentMax=0;resizeLast=0;collapsible=1;marginBottom=0;whiteSpace=wrap;html=1;" parent="1" vertex="1">
          <mxGeometry x="378" y="354" width="140" height="90" as="geometry" />
        </mxCell>
        <mxCell id="5MWL0-nEI8ZgV904CVtz-7" value="id" style="text;strokeColor=none;fillColor=none;align=left;verticalAlign=middle;spacingLeft=4;spacingRight=4;overflow=hidden;points=[[0,0.5],[1,0.5]];portConstraint=eastwest;rotatable=0;whiteSpace=wrap;html=1;" parent="5MWL0-nEI8ZgV904CVtz-6" vertex="1">
          <mxGeometry y="30" width="140" height="30" as="geometry" />
        </mxCell>
        <mxCell id="5MWL0-nEI8ZgV904CVtz-8" value="userId" style="text;strokeColor=none;fillColor=none;align=left;verticalAlign=middle;spacingLeft=4;spacingRight=4;overflow=hidden;points=[[0,0.5],[1,0.5]];portConstraint=eastwest;rotatable=0;whiteSpace=wrap;html=1;" parent="5MWL0-nEI8ZgV904CVtz-6" vertex="1">
          <mxGeometry y="60" width="140" height="30" as="geometry" />
        </mxCell>
        <mxCell id="5MWL0-nEI8ZgV904CVtz-11" value="" style="edgeStyle=entityRelationEdgeStyle;fontSize=12;html=1;endArrow=ERmandOne;startArrow=ERmandOne;rounded=0;" parent="1" source="5MWL0-nEI8ZgV904CVtz-2" target="5MWL0-nEI8ZgV904CVtz-8" edge="1">
          <mxGeometry width="100" height="100" relative="1" as="geometry">
            <mxPoint x="368" y="624" as="sourcePoint" />
            <mxPoint x="468" y="524" as="targetPoint" />
          </mxGeometry>
        </mxCell>
        <mxCell id="5MWL0-nEI8ZgV904CVtz-12" value="product" style="swimlane;fontStyle=0;childLayout=stackLayout;horizontal=1;startSize=30;horizontalStack=0;resizeParent=1;resizeParentMax=0;resizeLast=0;collapsible=1;marginBottom=0;whiteSpace=wrap;html=1;" parent="1" vertex="1">
          <mxGeometry x="798" y="269" width="140" height="270" as="geometry" />
        </mxCell>
        <mxCell id="5MWL0-nEI8ZgV904CVtz-13" value="id" style="text;strokeColor=none;fillColor=none;align=left;verticalAlign=middle;spacingLeft=4;spacingRight=4;overflow=hidden;points=[[0,0.5],[1,0.5]];portConstraint=eastwest;rotatable=0;whiteSpace=wrap;html=1;" parent="5MWL0-nEI8ZgV904CVtz-12" vertex="1">
          <mxGeometry y="30" width="140" height="30" as="geometry" />
        </mxCell>
        <mxCell id="5MWL0-nEI8ZgV904CVtz-14" value="name" style="text;strokeColor=none;fillColor=none;align=left;verticalAlign=middle;spacingLeft=4;spacingRight=4;overflow=hidden;points=[[0,0.5],[1,0.5]];portConstraint=eastwest;rotatable=0;whiteSpace=wrap;html=1;" parent="5MWL0-nEI8ZgV904CVtz-12" vertex="1">
          <mxGeometry y="60" width="140" height="30" as="geometry" />
        </mxCell>
        <mxCell id="5MWL0-nEI8ZgV904CVtz-15" value="price" style="text;strokeColor=none;fillColor=none;align=left;verticalAlign=middle;spacingLeft=4;spacingRight=4;overflow=hidden;points=[[0,0.5],[1,0.5]];portConstraint=eastwest;rotatable=0;whiteSpace=wrap;html=1;" parent="5MWL0-nEI8ZgV904CVtz-12" vertex="1">
          <mxGeometry y="90" width="140" height="30" as="geometry" />
        </mxCell>
        <mxCell id="rNepd5C1kq7vJe-YEwDy-3" value="discount" style="text;strokeColor=none;fillColor=none;align=left;verticalAlign=middle;spacingLeft=4;spacingRight=4;overflow=hidden;points=[[0,0.5],[1,0.5]];portConstraint=eastwest;rotatable=0;whiteSpace=wrap;html=1;" parent="5MWL0-nEI8ZgV904CVtz-12" vertex="1">
          <mxGeometry y="120" width="140" height="30" as="geometry" />
        </mxCell>
        <mxCell id="5MWL0-nEI8ZgV904CVtz-16" value="rating" style="text;strokeColor=none;fillColor=none;align=left;verticalAlign=middle;spacingLeft=4;spacingRight=4;overflow=hidden;points=[[0,0.5],[1,0.5]];portConstraint=eastwest;rotatable=0;whiteSpace=wrap;html=1;" parent="5MWL0-nEI8ZgV904CVtz-12" vertex="1">
          <mxGeometry y="150" width="140" height="30" as="geometry" />
        </mxCell>
        <mxCell id="5MWL0-nEI8ZgV904CVtz-18" value="categoryId" style="text;strokeColor=none;fillColor=none;align=left;verticalAlign=middle;spacingLeft=4;spacingRight=4;overflow=hidden;points=[[0,0.5],[1,0.5]];portConstraint=eastwest;rotatable=0;whiteSpace=wrap;html=1;" parent="5MWL0-nEI8ZgV904CVtz-12" vertex="1">
          <mxGeometry y="180" width="140" height="30" as="geometry" />
        </mxCell>
        <mxCell id="vkrqikl-NQeGXm39CAuh-4" value="subcategoryId" style="text;strokeColor=none;fillColor=none;align=left;verticalAlign=middle;spacingLeft=4;spacingRight=4;overflow=hidden;points=[[0,0.5],[1,0.5]];portConstraint=eastwest;rotatable=0;whiteSpace=wrap;html=1;" parent="5MWL0-nEI8ZgV904CVtz-12" vertex="1">
          <mxGeometry y="210" width="140" height="30" as="geometry" />
        </mxCell>
        <mxCell id="JTN3PpeSKyDfaB78N5p4-1" value="size STRING ARRAY" style="text;strokeColor=none;fillColor=none;align=left;verticalAlign=middle;spacingLeft=4;spacingRight=4;overflow=hidden;points=[[0,0.5],[1,0.5]];portConstraint=eastwest;rotatable=0;whiteSpace=wrap;html=1;" vertex="1" parent="5MWL0-nEI8ZgV904CVtz-12">
          <mxGeometry y="240" width="140" height="30" as="geometry" />
        </mxCell>
        <mxCell id="5MWL0-nEI8ZgV904CVtz-20" value="category" style="swimlane;fontStyle=0;childLayout=stackLayout;horizontal=1;startSize=30;horizontalStack=0;resizeParent=1;resizeParentMax=0;resizeLast=0;collapsible=1;marginBottom=0;whiteSpace=wrap;html=1;" parent="1" vertex="1">
          <mxGeometry x="1028" y="419" width="140" height="120" as="geometry" />
        </mxCell>
        <mxCell id="5MWL0-nEI8ZgV904CVtz-21" value="id" style="text;strokeColor=none;fillColor=none;align=left;verticalAlign=middle;spacingLeft=4;spacingRight=4;overflow=hidden;points=[[0,0.5],[1,0.5]];portConstraint=eastwest;rotatable=0;whiteSpace=wrap;html=1;" parent="5MWL0-nEI8ZgV904CVtz-20" vertex="1">
          <mxGeometry y="30" width="140" height="30" as="geometry" />
        </mxCell>
        <mxCell id="5MWL0-nEI8ZgV904CVtz-22" value="name" style="text;strokeColor=none;fillColor=none;align=left;verticalAlign=middle;spacingLeft=4;spacingRight=4;overflow=hidden;points=[[0,0.5],[1,0.5]];portConstraint=eastwest;rotatable=0;whiteSpace=wrap;html=1;" parent="5MWL0-nEI8ZgV904CVtz-20" vertex="1">
          <mxGeometry y="60" width="140" height="30" as="geometry" />
        </mxCell>
        <mxCell id="mlr-rR-SufKsn7wQ95hr-1" value="sex" style="text;strokeColor=none;fillColor=none;align=left;verticalAlign=middle;spacingLeft=4;spacingRight=4;overflow=hidden;points=[[0,0.5],[1,0.5]];portConstraint=eastwest;rotatable=0;whiteSpace=wrap;html=1;" parent="5MWL0-nEI8ZgV904CVtz-20" vertex="1">
          <mxGeometry y="90" width="140" height="30" as="geometry" />
        </mxCell>
        <mxCell id="5MWL0-nEI8ZgV904CVtz-26" value="" style="edgeStyle=entityRelationEdgeStyle;fontSize=12;html=1;endArrow=ERoneToMany;rounded=0;" parent="1" source="5MWL0-nEI8ZgV904CVtz-21" target="5MWL0-nEI8ZgV904CVtz-18" edge="1">
          <mxGeometry width="100" height="100" relative="1" as="geometry">
            <mxPoint x="1298" y="584" as="sourcePoint" />
            <mxPoint x="1088" y="454" as="targetPoint" />
            <Array as="points">
              <mxPoint x="1138" y="799" />
              <mxPoint x="1168" y="554" />
              <mxPoint x="1068" y="554" />
              <mxPoint x="1098" y="554" />
              <mxPoint x="918" y="544" />
              <mxPoint x="1138" y="654" />
              <mxPoint x="1098" y="484" />
              <mxPoint x="1138" y="504" />
              <mxPoint x="1148" y="654" />
            </Array>
          </mxGeometry>
        </mxCell>
        <mxCell id="5MWL0-nEI8ZgV904CVtz-28" value="product_info" style="swimlane;fontStyle=0;childLayout=stackLayout;horizontal=1;startSize=30;horizontalStack=0;resizeParent=1;resizeParentMax=0;resizeLast=0;collapsible=1;marginBottom=0;whiteSpace=wrap;html=1;" parent="1" vertex="1">
          <mxGeometry x="1028" y="239" width="140" height="150" as="geometry" />
        </mxCell>
        <mxCell id="5MWL0-nEI8ZgV904CVtz-29" value="id" style="text;strokeColor=none;fillColor=none;align=left;verticalAlign=middle;spacingLeft=4;spacingRight=4;overflow=hidden;points=[[0,0.5],[1,0.5]];portConstraint=eastwest;rotatable=0;whiteSpace=wrap;html=1;" parent="5MWL0-nEI8ZgV904CVtz-28" vertex="1">
          <mxGeometry y="30" width="140" height="30" as="geometry" />
        </mxCell>
        <mxCell id="5MWL0-nEI8ZgV904CVtz-30" value="productId" style="text;strokeColor=none;fillColor=none;align=left;verticalAlign=middle;spacingLeft=4;spacingRight=4;overflow=hidden;points=[[0,0.5],[1,0.5]];portConstraint=eastwest;rotatable=0;whiteSpace=wrap;html=1;" parent="5MWL0-nEI8ZgV904CVtz-28" vertex="1">
          <mxGeometry y="60" width="140" height="30" as="geometry" />
        </mxCell>
        <mxCell id="5MWL0-nEI8ZgV904CVtz-31" value="title" style="text;strokeColor=none;fillColor=none;align=left;verticalAlign=middle;spacingLeft=4;spacingRight=4;overflow=hidden;points=[[0,0.5],[1,0.5]];portConstraint=eastwest;rotatable=0;whiteSpace=wrap;html=1;" parent="5MWL0-nEI8ZgV904CVtz-28" vertex="1">
          <mxGeometry y="90" width="140" height="30" as="geometry" />
        </mxCell>
        <mxCell id="5MWL0-nEI8ZgV904CVtz-32" value="description" style="text;strokeColor=none;fillColor=none;align=left;verticalAlign=middle;spacingLeft=4;spacingRight=4;overflow=hidden;points=[[0,0.5],[1,0.5]];portConstraint=eastwest;rotatable=0;whiteSpace=wrap;html=1;" parent="5MWL0-nEI8ZgV904CVtz-28" vertex="1">
          <mxGeometry y="120" width="140" height="30" as="geometry" />
        </mxCell>
        <mxCell id="5MWL0-nEI8ZgV904CVtz-33" value="" style="edgeStyle=entityRelationEdgeStyle;fontSize=12;html=1;endArrow=ERoneToMany;rounded=0;" parent="1" source="5MWL0-nEI8ZgV904CVtz-13" target="5MWL0-nEI8ZgV904CVtz-30" edge="1">
          <mxGeometry width="100" height="100" relative="1" as="geometry">
            <mxPoint x="1108" y="704" as="sourcePoint" />
            <mxPoint x="1188" y="514" as="targetPoint" />
            <Array as="points">
              <mxPoint x="1388" y="804" />
              <mxPoint x="1388" y="659" />
              <mxPoint x="1348" y="489" />
              <mxPoint x="1388" y="509" />
              <mxPoint x="1398" y="659" />
            </Array>
          </mxGeometry>
        </mxCell>
        <mxCell id="5MWL0-nEI8ZgV904CVtz-34" value="busket_product" style="swimlane;fontStyle=0;childLayout=stackLayout;horizontal=1;startSize=30;horizontalStack=0;resizeParent=1;resizeParentMax=0;resizeLast=0;collapsible=1;marginBottom=0;whiteSpace=wrap;html=1;" parent="1" vertex="1">
          <mxGeometry x="588" y="239" width="140" height="180" as="geometry" />
        </mxCell>
        <mxCell id="5MWL0-nEI8ZgV904CVtz-35" value="id" style="text;strokeColor=none;fillColor=none;align=left;verticalAlign=middle;spacingLeft=4;spacingRight=4;overflow=hidden;points=[[0,0.5],[1,0.5]];portConstraint=eastwest;rotatable=0;whiteSpace=wrap;html=1;" parent="5MWL0-nEI8ZgV904CVtz-34" vertex="1">
          <mxGeometry y="30" width="140" height="30" as="geometry" />
        </mxCell>
        <mxCell id="5MWL0-nEI8ZgV904CVtz-36" value="busketId" style="text;strokeColor=none;fillColor=none;align=left;verticalAlign=middle;spacingLeft=4;spacingRight=4;overflow=hidden;points=[[0,0.5],[1,0.5]];portConstraint=eastwest;rotatable=0;whiteSpace=wrap;html=1;" parent="5MWL0-nEI8ZgV904CVtz-34" vertex="1">
          <mxGeometry y="60" width="140" height="30" as="geometry" />
        </mxCell>
        <mxCell id="5MWL0-nEI8ZgV904CVtz-38" value="productId" style="text;strokeColor=none;fillColor=none;align=left;verticalAlign=middle;spacingLeft=4;spacingRight=4;overflow=hidden;points=[[0,0.5],[1,0.5]];portConstraint=eastwest;rotatable=0;whiteSpace=wrap;html=1;" parent="5MWL0-nEI8ZgV904CVtz-34" vertex="1">
          <mxGeometry y="90" width="140" height="30" as="geometry" />
        </mxCell>
        <mxCell id="gnACn4G0oC28c5RjPpDY-5" value="quantity" style="text;strokeColor=none;fillColor=none;align=left;verticalAlign=middle;spacingLeft=4;spacingRight=4;overflow=hidden;points=[[0,0.5],[1,0.5]];portConstraint=eastwest;rotatable=0;whiteSpace=wrap;html=1;" parent="5MWL0-nEI8ZgV904CVtz-34" vertex="1">
          <mxGeometry y="120" width="140" height="30" as="geometry" />
        </mxCell>
        <mxCell id="mlr-rR-SufKsn7wQ95hr-2" value="size" style="text;strokeColor=none;fillColor=none;align=left;verticalAlign=middle;spacingLeft=4;spacingRight=4;overflow=hidden;points=[[0,0.5],[1,0.5]];portConstraint=eastwest;rotatable=0;whiteSpace=wrap;html=1;" parent="5MWL0-nEI8ZgV904CVtz-34" vertex="1">
          <mxGeometry y="150" width="140" height="30" as="geometry" />
        </mxCell>
        <mxCell id="5MWL0-nEI8ZgV904CVtz-42" value="" style="edgeStyle=entityRelationEdgeStyle;fontSize=12;html=1;endArrow=ERmandOne;startArrow=ERmandOne;rounded=0;" parent="1" source="5MWL0-nEI8ZgV904CVtz-38" target="5MWL0-nEI8ZgV904CVtz-13" edge="1">
          <mxGeometry width="100" height="100" relative="1" as="geometry">
            <mxPoint x="728" y="394" as="sourcePoint" />
            <mxPoint x="798" y="314" as="targetPoint" />
          </mxGeometry>
        </mxCell>
        <mxCell id="5MWL0-nEI8ZgV904CVtz-43" value="" style="edgeStyle=entityRelationEdgeStyle;fontSize=12;html=1;endArrow=ERoneToMany;rounded=0;" parent="1" source="5MWL0-nEI8ZgV904CVtz-7" target="5MWL0-nEI8ZgV904CVtz-36" edge="1">
          <mxGeometry width="100" height="100" relative="1" as="geometry">
            <mxPoint x="508" y="664" as="sourcePoint" />
            <mxPoint x="588" y="474" as="targetPoint" />
            <Array as="points">
              <mxPoint x="788" y="764" />
              <mxPoint x="788" y="619" />
              <mxPoint x="748" y="449" />
              <mxPoint x="788" y="469" />
              <mxPoint x="798" y="619" />
            </Array>
          </mxGeometry>
        </mxCell>
        <mxCell id="5MWL0-nEI8ZgV904CVtz-44" value="rating" style="swimlane;fontStyle=0;childLayout=stackLayout;horizontal=1;startSize=30;horizontalStack=0;resizeParent=1;resizeParentMax=0;resizeLast=0;collapsible=1;marginBottom=0;whiteSpace=wrap;html=1;" parent="1" vertex="1">
          <mxGeometry x="448" y="494" width="140" height="180" as="geometry" />
        </mxCell>
        <mxCell id="5MWL0-nEI8ZgV904CVtz-45" value="id" style="text;strokeColor=none;fillColor=none;align=left;verticalAlign=middle;spacingLeft=4;spacingRight=4;overflow=hidden;points=[[0,0.5],[1,0.5]];portConstraint=eastwest;rotatable=0;whiteSpace=wrap;html=1;" parent="5MWL0-nEI8ZgV904CVtz-44" vertex="1">
          <mxGeometry y="30" width="140" height="30" as="geometry" />
        </mxCell>
        <mxCell id="5MWL0-nEI8ZgV904CVtz-46" value="userId" style="text;strokeColor=none;fillColor=none;align=left;verticalAlign=middle;spacingLeft=4;spacingRight=4;overflow=hidden;points=[[0,0.5],[1,0.5]];portConstraint=eastwest;rotatable=0;whiteSpace=wrap;html=1;" parent="5MWL0-nEI8ZgV904CVtz-44" vertex="1">
          <mxGeometry y="60" width="140" height="30" as="geometry" />
        </mxCell>
        <mxCell id="5MWL0-nEI8ZgV904CVtz-47" value="productId" style="text;strokeColor=none;fillColor=none;align=left;verticalAlign=middle;spacingLeft=4;spacingRight=4;overflow=hidden;points=[[0,0.5],[1,0.5]];portConstraint=eastwest;rotatable=0;whiteSpace=wrap;html=1;" parent="5MWL0-nEI8ZgV904CVtz-44" vertex="1">
          <mxGeometry y="90" width="140" height="30" as="geometry" />
        </mxCell>
        <mxCell id="5MWL0-nEI8ZgV904CVtz-48" value="rate" style="text;strokeColor=none;fillColor=none;align=left;verticalAlign=middle;spacingLeft=4;spacingRight=4;overflow=hidden;points=[[0,0.5],[1,0.5]];portConstraint=eastwest;rotatable=0;whiteSpace=wrap;html=1;" parent="5MWL0-nEI8ZgV904CVtz-44" vertex="1">
          <mxGeometry y="120" width="140" height="30" as="geometry" />
        </mxCell>
        <mxCell id="mlr-rR-SufKsn7wQ95hr-16" value="comment" style="text;strokeColor=none;fillColor=none;align=left;verticalAlign=middle;spacingLeft=4;spacingRight=4;overflow=hidden;points=[[0,0.5],[1,0.5]];portConstraint=eastwest;rotatable=0;whiteSpace=wrap;html=1;" parent="5MWL0-nEI8ZgV904CVtz-44" vertex="1">
          <mxGeometry y="150" width="140" height="30" as="geometry" />
        </mxCell>
        <mxCell id="5MWL0-nEI8ZgV904CVtz-49" value="" style="edgeStyle=entityRelationEdgeStyle;fontSize=12;html=1;endArrow=ERoneToMany;rounded=0;" parent="1" target="5MWL0-nEI8ZgV904CVtz-46" edge="1">
          <mxGeometry width="100" height="100" relative="1" as="geometry">
            <mxPoint x="218" y="444" as="sourcePoint" />
            <mxPoint x="258" y="639" as="targetPoint" />
            <Array as="points">
              <mxPoint x="438" y="794" />
              <mxPoint x="438" y="649" />
              <mxPoint x="398" y="479" />
              <mxPoint x="438" y="499" />
              <mxPoint x="448" y="649" />
            </Array>
          </mxGeometry>
        </mxCell>
        <mxCell id="5MWL0-nEI8ZgV904CVtz-50" value="" style="edgeStyle=entityRelationEdgeStyle;fontSize=12;html=1;endArrow=ERoneToMany;startArrow=ERoneToMany;rounded=0;startFill=0;endFill=0;" parent="1" source="5MWL0-nEI8ZgV904CVtz-47" target="5MWL0-nEI8ZgV904CVtz-16" edge="1">
          <mxGeometry width="100" height="100" relative="1" as="geometry">
            <mxPoint x="468.94000000000005" y="599.99" as="sourcePoint" />
            <mxPoint x="798" y="444" as="targetPoint" />
          </mxGeometry>
        </mxCell>
        <mxCell id="gnACn4G0oC28c5RjPpDY-8" value="subcategory" style="swimlane;fontStyle=0;childLayout=stackLayout;horizontal=1;startSize=30;horizontalStack=0;resizeParent=1;resizeParentMax=0;resizeLast=0;collapsible=1;marginBottom=0;whiteSpace=wrap;html=1;" parent="1" vertex="1">
          <mxGeometry x="1028" y="564" width="140" height="150" as="geometry" />
        </mxCell>
        <mxCell id="gnACn4G0oC28c5RjPpDY-9" value="id" style="text;strokeColor=none;fillColor=none;align=left;verticalAlign=middle;spacingLeft=4;spacingRight=4;overflow=hidden;points=[[0,0.5],[1,0.5]];portConstraint=eastwest;rotatable=0;whiteSpace=wrap;html=1;" parent="gnACn4G0oC28c5RjPpDY-8" vertex="1">
          <mxGeometry y="30" width="140" height="30" as="geometry" />
        </mxCell>
        <mxCell id="gnACn4G0oC28c5RjPpDY-12" value="categoryId" style="text;strokeColor=none;fillColor=none;align=left;verticalAlign=middle;spacingLeft=4;spacingRight=4;overflow=hidden;points=[[0,0.5],[1,0.5]];portConstraint=eastwest;rotatable=0;whiteSpace=wrap;html=1;" parent="gnACn4G0oC28c5RjPpDY-8" vertex="1">
          <mxGeometry y="60" width="140" height="30" as="geometry" />
        </mxCell>
        <mxCell id="gnACn4G0oC28c5RjPpDY-10" value="name" style="text;strokeColor=none;fillColor=none;align=left;verticalAlign=middle;spacingLeft=4;spacingRight=4;overflow=hidden;points=[[0,0.5],[1,0.5]];portConstraint=eastwest;rotatable=0;whiteSpace=wrap;html=1;" parent="gnACn4G0oC28c5RjPpDY-8" vertex="1">
          <mxGeometry y="90" width="140" height="30" as="geometry" />
        </mxCell>
        <mxCell id="vkrqikl-NQeGXm39CAuh-9" value="sex" style="text;strokeColor=none;fillColor=none;align=left;verticalAlign=middle;spacingLeft=4;spacingRight=4;overflow=hidden;points=[[0,0.5],[1,0.5]];portConstraint=eastwest;rotatable=0;whiteSpace=wrap;html=1;" parent="gnACn4G0oC28c5RjPpDY-8" vertex="1">
          <mxGeometry y="120" width="140" height="30" as="geometry" />
        </mxCell>
        <mxCell id="gnACn4G0oC28c5RjPpDY-13" value="" style="fontSize=12;html=1;endArrow=ERoneToMany;rounded=0;edgeStyle=entityRelationEdgeStyle;elbow=vertical;" parent="1" source="gnACn4G0oC28c5RjPpDY-9" target="vkrqikl-NQeGXm39CAuh-4" edge="1">
          <mxGeometry width="100" height="100" relative="1" as="geometry">
            <mxPoint x="1312" y="605" as="sourcePoint" />
            <mxPoint x="1060" y="500" as="targetPoint" />
            <Array as="points">
              <mxPoint x="900" y="540" />
              <mxPoint x="1020" y="580" />
            </Array>
          </mxGeometry>
        </mxCell>
        <mxCell id="gnACn4G0oC28c5RjPpDY-14" value="Я" style="shape=umlActor;verticalLabelPosition=bottom;verticalAlign=top;html=1;outlineConnect=0;" parent="1" vertex="1">
          <mxGeometry x="98" y="564" width="30" height="60" as="geometry" />
        </mxCell>
        <mxCell id="gnACn4G0oC28c5RjPpDY-15" value="images" style="swimlane;fontStyle=0;childLayout=stackLayout;horizontal=1;startSize=30;horizontalStack=0;resizeParent=1;resizeParentMax=0;resizeLast=0;collapsible=1;marginBottom=0;whiteSpace=wrap;html=1;" parent="1" vertex="1">
          <mxGeometry x="1028" y="74" width="140" height="150" as="geometry" />
        </mxCell>
        <mxCell id="gnACn4G0oC28c5RjPpDY-16" value="id" style="text;strokeColor=none;fillColor=none;align=left;verticalAlign=middle;spacingLeft=4;spacingRight=4;overflow=hidden;points=[[0,0.5],[1,0.5]];portConstraint=eastwest;rotatable=0;whiteSpace=wrap;html=1;" parent="gnACn4G0oC28c5RjPpDY-15" vertex="1">
          <mxGeometry y="30" width="140" height="30" as="geometry" />
        </mxCell>
        <mxCell id="gnACn4G0oC28c5RjPpDY-17" value="productId" style="text;strokeColor=none;fillColor=none;align=left;verticalAlign=middle;spacingLeft=4;spacingRight=4;overflow=hidden;points=[[0,0.5],[1,0.5]];portConstraint=eastwest;rotatable=0;whiteSpace=wrap;html=1;" parent="gnACn4G0oC28c5RjPpDY-15" vertex="1">
          <mxGeometry y="60" width="140" height="30" as="geometry" />
        </mxCell>
        <mxCell id="gnACn4G0oC28c5RjPpDY-18" value="img" style="text;strokeColor=none;fillColor=none;align=left;verticalAlign=middle;spacingLeft=4;spacingRight=4;overflow=hidden;points=[[0,0.5],[1,0.5]];portConstraint=eastwest;rotatable=0;whiteSpace=wrap;html=1;" parent="gnACn4G0oC28c5RjPpDY-15" vertex="1">
          <mxGeometry y="90" width="140" height="30" as="geometry" />
        </mxCell>
        <mxCell id="vkrqikl-NQeGXm39CAuh-10" value="color" style="text;strokeColor=none;fillColor=none;align=left;verticalAlign=middle;spacingLeft=4;spacingRight=4;overflow=hidden;points=[[0,0.5],[1,0.5]];portConstraint=eastwest;rotatable=0;whiteSpace=wrap;html=1;" parent="gnACn4G0oC28c5RjPpDY-15" vertex="1">
          <mxGeometry y="120" width="140" height="30" as="geometry" />
        </mxCell>
        <mxCell id="gnACn4G0oC28c5RjPpDY-19" value="" style="edgeStyle=entityRelationEdgeStyle;fontSize=12;html=1;endArrow=ERoneToMany;rounded=0;" parent="1" source="5MWL0-nEI8ZgV904CVtz-13" target="gnACn4G0oC28c5RjPpDY-17" edge="1">
          <mxGeometry width="100" height="100" relative="1" as="geometry">
            <mxPoint x="968" y="409" as="sourcePoint" />
            <mxPoint x="1038" y="354" as="targetPoint" />
            <Array as="points">
              <mxPoint x="1418" y="899" />
              <mxPoint x="1418" y="754" />
              <mxPoint x="1378" y="584" />
              <mxPoint x="1418" y="604" />
              <mxPoint x="1428" y="754" />
            </Array>
          </mxGeometry>
        </mxCell>
        <mxCell id="gnACn4G0oC28c5RjPpDY-23" value="orders" style="swimlane;fontStyle=0;childLayout=stackLayout;horizontal=1;startSize=30;horizontalStack=0;resizeParent=1;resizeParentMax=0;resizeLast=0;collapsible=1;marginBottom=0;whiteSpace=wrap;html=1;" parent="1" vertex="1">
          <mxGeometry x="218" y="854" width="140" height="90" as="geometry" />
        </mxCell>
        <mxCell id="gnACn4G0oC28c5RjPpDY-24" value="id" style="text;strokeColor=none;fillColor=none;align=left;verticalAlign=middle;spacingLeft=4;spacingRight=4;overflow=hidden;points=[[0,0.5],[1,0.5]];portConstraint=eastwest;rotatable=0;whiteSpace=wrap;html=1;" parent="gnACn4G0oC28c5RjPpDY-23" vertex="1">
          <mxGeometry y="30" width="140" height="30" as="geometry" />
        </mxCell>
        <mxCell id="gnACn4G0oC28c5RjPpDY-25" value="user_id" style="text;strokeColor=none;fillColor=none;align=left;verticalAlign=middle;spacingLeft=4;spacingRight=4;overflow=hidden;points=[[0,0.5],[1,0.5]];portConstraint=eastwest;rotatable=0;whiteSpace=wrap;html=1;" parent="gnACn4G0oC28c5RjPpDY-23" vertex="1">
          <mxGeometry y="60" width="140" height="30" as="geometry" />
        </mxCell>
        <mxCell id="gnACn4G0oC28c5RjPpDY-28" value="orders_product" style="swimlane;fontStyle=0;childLayout=stackLayout;horizontal=1;startSize=30;horizontalStack=0;resizeParent=1;resizeParentMax=0;resizeLast=0;collapsible=1;marginBottom=0;whiteSpace=wrap;html=1;" parent="1" vertex="1">
          <mxGeometry x="458" y="804" width="140" height="180" as="geometry" />
        </mxCell>
        <mxCell id="gnACn4G0oC28c5RjPpDY-29" value="id" style="text;strokeColor=none;fillColor=none;align=left;verticalAlign=middle;spacingLeft=4;spacingRight=4;overflow=hidden;points=[[0,0.5],[1,0.5]];portConstraint=eastwest;rotatable=0;whiteSpace=wrap;html=1;" parent="gnACn4G0oC28c5RjPpDY-28" vertex="1">
          <mxGeometry y="30" width="140" height="30" as="geometry" />
        </mxCell>
        <mxCell id="gnACn4G0oC28c5RjPpDY-31" value="order_id" style="text;strokeColor=none;fillColor=none;align=left;verticalAlign=middle;spacingLeft=4;spacingRight=4;overflow=hidden;points=[[0,0.5],[1,0.5]];portConstraint=eastwest;rotatable=0;whiteSpace=wrap;html=1;" parent="gnACn4G0oC28c5RjPpDY-28" vertex="1">
          <mxGeometry y="60" width="140" height="30" as="geometry" />
        </mxCell>
        <mxCell id="gnACn4G0oC28c5RjPpDY-30" value="product_id" style="text;strokeColor=none;fillColor=none;align=left;verticalAlign=middle;spacingLeft=4;spacingRight=4;overflow=hidden;points=[[0,0.5],[1,0.5]];portConstraint=eastwest;rotatable=0;whiteSpace=wrap;html=1;" parent="gnACn4G0oC28c5RjPpDY-28" vertex="1">
          <mxGeometry y="90" width="140" height="30" as="geometry" />
        </mxCell>
        <mxCell id="gnACn4G0oC28c5RjPpDY-33" value="product_size" style="text;strokeColor=none;fillColor=none;align=left;verticalAlign=middle;spacingLeft=4;spacingRight=4;overflow=hidden;points=[[0,0.5],[1,0.5]];portConstraint=eastwest;rotatable=0;whiteSpace=wrap;html=1;" parent="gnACn4G0oC28c5RjPpDY-28" vertex="1">
          <mxGeometry y="120" width="140" height="30" as="geometry" />
        </mxCell>
        <mxCell id="gnACn4G0oC28c5RjPpDY-34" value="product_color" style="text;strokeColor=none;fillColor=none;align=left;verticalAlign=middle;spacingLeft=4;spacingRight=4;overflow=hidden;points=[[0,0.5],[1,0.5]];portConstraint=eastwest;rotatable=0;whiteSpace=wrap;html=1;" parent="gnACn4G0oC28c5RjPpDY-28" vertex="1">
          <mxGeometry y="150" width="140" height="30" as="geometry" />
        </mxCell>
        <mxCell id="gnACn4G0oC28c5RjPpDY-32" value="" style="edgeStyle=entityRelationEdgeStyle;fontSize=12;html=1;endArrow=ERoneToMany;rounded=0;" parent="1" source="gnACn4G0oC28c5RjPpDY-24" target="gnACn4G0oC28c5RjPpDY-31" edge="1">
          <mxGeometry width="100" height="100" relative="1" as="geometry">
            <mxPoint x="617.5" y="979" as="sourcePoint" />
            <mxPoint x="678.5" y="814" as="targetPoint" />
            <Array as="points">
              <mxPoint x="1067.5" y="1469" />
              <mxPoint x="1067.5" y="1324" />
              <mxPoint x="1027.5" y="1154" />
              <mxPoint x="1067.5" y="1174" />
              <mxPoint x="1077.5" y="1324" />
            </Array>
          </mxGeometry>
        </mxCell>
        <mxCell id="gnACn4G0oC28c5RjPpDY-35" value="" style="edgeStyle=entityRelationEdgeStyle;fontSize=12;html=1;endArrow=ERoneToMany;rounded=0;" parent="1" target="gnACn4G0oC28c5RjPpDY-25" edge="1">
          <mxGeometry width="100" height="100" relative="1" as="geometry">
            <mxPoint x="138" y="1014" as="sourcePoint" />
            <mxPoint x="148" y="964" as="targetPoint" />
            <Array as="points">
              <mxPoint x="757.5" y="1554" />
              <mxPoint x="757.5" y="1409" />
              <mxPoint x="717.5" y="1239" />
              <mxPoint x="757.5" y="1259" />
              <mxPoint x="767.5" y="1409" />
            </Array>
          </mxGeometry>
        </mxCell>
        <mxCell id="gnACn4G0oC28c5RjPpDY-36" value="" style="edgeStyle=entityRelationEdgeStyle;fontSize=12;html=1;endArrow=ERoneToMany;rounded=0;" parent="1" target="gnACn4G0oC28c5RjPpDY-30" edge="1">
          <mxGeometry width="100" height="100" relative="1" as="geometry">
            <mxPoint x="698" y="1004" as="sourcePoint" />
            <mxPoint x="758" y="894" as="targetPoint" />
            <Array as="points">
              <mxPoint x="1297.5" y="1519" />
              <mxPoint x="1297.5" y="1374" />
              <mxPoint x="1257.5" y="1204" />
              <mxPoint x="1297.5" y="1224" />
              <mxPoint x="1307.5" y="1374" />
            </Array>
          </mxGeometry>
        </mxCell>
        <mxCell id="vkrqikl-NQeGXm39CAuh-5" value="" style="edgeStyle=entityRelationEdgeStyle;fontSize=12;html=1;endArrow=ERoneToMany;startArrow=ERoneToMany;rounded=0;startFill=0;endFill=0;" parent="1" source="gnACn4G0oC28c5RjPpDY-12" target="5MWL0-nEI8ZgV904CVtz-21" edge="1">
          <mxGeometry width="100" height="100" relative="1" as="geometry">
            <mxPoint x="1250" y="759" as="sourcePoint" />
            <mxPoint x="1460" y="564" as="targetPoint" />
          </mxGeometry>
        </mxCell>
        <mxCell id="Dohfl4JGRKgdcuQEx8Xo-1" value="Index. js&lt;br&gt;localhost:5000/" style="ellipse;whiteSpace=wrap;html=1;" parent="1" vertex="1">
          <mxGeometry x="620" y="1300" width="120" height="80" as="geometry" />
        </mxCell>
        <mxCell id="Dohfl4JGRKgdcuQEx8Xo-2" value="/user" style="ellipse;whiteSpace=wrap;html=1;" parent="1" vertex="1">
          <mxGeometry x="368" y="1420" width="120" height="80" as="geometry" />
        </mxCell>
        <mxCell id="Dohfl4JGRKgdcuQEx8Xo-3" value="/category" style="ellipse;whiteSpace=wrap;html=1;" parent="1" vertex="1">
          <mxGeometry x="530" y="1420" width="120" height="80" as="geometry" />
        </mxCell>
        <mxCell id="Dohfl4JGRKgdcuQEx8Xo-4" value="/product" style="ellipse;whiteSpace=wrap;html=1;" parent="1" vertex="1">
          <mxGeometry x="670" y="1420" width="120" height="80" as="geometry" />
        </mxCell>
        <mxCell id="Dohfl4JGRKgdcuQEx8Xo-5" value="/basket" style="ellipse;whiteSpace=wrap;html=1;" parent="1" vertex="1">
          <mxGeometry x="828" y="1430" width="120" height="80" as="geometry" />
        </mxCell>
      </root>
    </mxGraphModel>
  </diagram>
</mxfile>
